<svg xmlns="http://www.w3.org/2000/svg" version="1.1" xmlns:xlink="http://www.w3.org/1999/xlink" xmlns:svgjs="http://svgjs.dev/svgjs" width="1000" height="781" viewBox="0 0 1000 781"><g transform="matrix(1,0,0,1,0.7350253419304522,0.31677822269722355)"><svg viewBox="0 0 316 247" data-background-color="#ffffff" preserveAspectRatio="xMidYMid meet" height="781" width="1000" xmlns="http://www.w3.org/2000/svg" xmlns:xlink="http://www.w3.org/1999/xlink"><g id="tight-bounds" transform="matrix(1,0,0,1,-0.23226800805002767,-0.09997365579206985)"><svg viewBox="0 0 316.4642862785556 247.2" height="247.2" width="316.4642862785556"><g><svg viewBox="0 0 316.4642862785556 247.2" height="247.2" width="316.4642862785556"><g><svg viewBox="0 0 316.4642862785556 247.2" height="247.2" width="316.4642862785556"><g id="textblocktransform"><svg viewBox="0 0 316.4642862785556 247.2" height="247.2" width="316.4642862785556" id="textblock"><g><svg viewBox="0 0 316.4642862785556 247.2" height="247.2" width="316.4642862785556"><path d="M315.723 53.02C314.236 27.36 309.995 20.227 309.995 20.227 296.978-6.202 280.731-0.506 266.136 3.292 240.368 3.446 214.704 9.091 188.995 12.119 135.034 12.581 80.612 4.986 26.918 23.717 21.875 29.464-5.232 24.846 0.897 56.304 2.504 69.39 8.366 83.913 8.187 95.922 8.991 98.026 10.106 93.202 10.582 96.23 12.249 104.39 14.971 100.541 17.203 105.365 14.094 118.246 16.325 128.971 18.453 140.21 14.704 143.135 9.898 141.749 7.741 151.449 7.518 158.479 6.313 157.145 4.988 156.837 4.021 156.632 2.072 157.402 2.4 159.608 3.516 167.152-1.275 171.514 1.73 178.904-0.338 186.91 3.159 193.838 2.682 202.511 2.623 204.255 2.95 205.744 3.471 206.154 5.777 208.361 2.415 212.672 2.772 217.342 26.427 249.262 52.091 227.195 76.327 241.872 82.62 231.608 77.889 245.516 80.403 243.36 82.367 240.846 83.795 251.263 86.012 245.362 86.354 243.668 85.834 239.665 87.054 240.435 87.693 240.846 88.259 240.743 88.348 238.382 88.482 234.841 87.307 237.048 86.994 235.201 90.371 225.861 89.538 248.081 92.707 247.158 92.558 244.438 91.636 240.538 93.525 241.051 95.4 237.151 95.46 233.918 97.126 242.693 97.185 244.592 97.483 245.926 97.959 246.85 103.166 237.305 108.344 250.237 113.804 245.926 117.151 241.205 120.365 248.492 123.757 246.696 124.947 245.259 126.152 242.693 127.298 247.004 141.327 247.928 156.279 244.079 169.58 247.158 205.123 241.41 243.105 249.518 280.582 241.923 289.42 238.998 298.599 234.841 307.213 231.506 307.213 231.506 314.191 222.371 314.191 181.316S315.679 145.393 315.902 112.703C316.125 80.013 317.167 78.679 315.679 53.02Z" opacity="1" fill="#35185a" data-fill-palette-color="tertiary"></path><g transform="matrix(1,0,0,1,55.76831999999999,26.230666666666668)"><svg width="204.92764627855564" viewBox="0.9800000190734863 -49.95000076293945 69.7199935913086 66.26000213623047" height="194.73866666666666" data-palette-color="#ffffff"><path d="M70.7-22.75L70.7-22.75Q70.61-22.17 70.39-21.44 70.17-20.7 69.8-20.09 69.43-19.48 68.9-19.07 68.36-18.65 67.63-18.65L67.63-18.65Q67.09-18.65 66.55-18.77 66.02-18.9 65.43-18.9L65.43-18.9Q65.19-18.9 64.92-18.73 64.65-18.55 64.4-18.55L64.4-18.55Q64.16-18.55 63.99-18.63 63.82-18.7 63.57-18.7L63.57-18.7Q63.43-18.7 63.04-18.6 62.65-18.51 62.21-18.41 61.77-18.31 61.38-18.19 60.99-18.07 60.84-18.02L60.84-18.02Q59.52-17.58 58.2-17.24 56.88-16.89 55.47-16.8L55.47-16.8Q55.18-16.89 54.59-17.02 54-17.14 53.71-17.14L53.71-17.14Q53.13-17.14 52.95-16.65 52.78-16.16 52.29-15.92L52.29-15.92Q51.71-15.58 50.83-15.53 49.95-15.48 49.07-15.38 48.19-15.28 47.44-15.01 46.68-14.75 46.34-14.01L46.34-14.01Q46.09-14.06 45.83-14.09 45.56-14.11 45.26-14.11L45.26-14.11Q43.7-14.11 42.33-13.5 40.97-12.89 39.55-12.4L39.55-12.4Q39.79-11.96 39.89-11.33 39.99-10.69 40.09-10.08 40.19-9.47 40.36-8.91 40.53-8.35 40.97-8.06L40.97-8.06Q40.97-7.76 40.84-7.57 40.72-7.37 40.58-7.23L40.58-7.23 40.23-6.88Q40.09-6.74 40.04-6.45L40.04-6.45Q39.89-5.86 39.89-5.25 39.89-4.64 39.21-4.35L39.21-4.35Q39.26-4.2 39.26-3.81L39.26-3.81Q39.26-3.32 39.11-2.88 38.96-2.44 39.01-1.9L39.01-1.9Q38.18-0.98 37.62 0 37.06 0.98 36.77 2.1L36.77 2.1Q34.96 3.91 33.08 5.74 31.2 7.57 29.22 9.28 27.25 10.99 25.15 12.52 23.05 14.06 20.8 15.23L20.8 15.23 20.46 15.23Q19.34 15.23 18.7 15.63 18.07 16.02 17.09 16.31L17.09 16.31Q16.36 16.11 15.33 16.11L15.33 16.11Q14.75 16.11 14.14 16.16 13.53 16.21 12.89 16.21L12.89 16.21Q12.06 16.21 11.4 16.02 10.74 15.82 10.13 15.58 9.52 15.33 8.89 15.09 8.25 14.84 7.52 14.75L7.52 14.75Q4.49 11.72 2.73 7.69 0.98 3.66 0.98-0.59L0.98-0.59Q0.98-2.54 1.51-4.42 2.05-6.3 2.05-8.2L2.05-8.2Q2.93-9.96 3.59-11.82 4.25-13.67 4.93-15.53 5.62-17.38 6.42-19.17 7.23-20.95 8.35-22.56L8.35-22.56Q8.59-23.83 9.13-24.76 9.67-25.68 10.3-26.81L10.3-26.81Q10.3-27.88 10.77-28.78 11.23-29.69 11.33-30.81L11.33-30.81Q12.11-31.54 12.6-32.47 13.09-33.4 13.53-34.38 13.96-35.35 14.53-36.25 15.09-37.16 16.06-37.79L16.06-37.79Q16.16-38.13 16.19-38.55 16.21-38.96 16.41-39.21L16.41-39.21 17.43-40.33Q17.92-40.97 18.33-41.63 18.75-42.29 19.24-42.82L19.24-42.82Q19.53-43.12 19.87-43.31 20.21-43.51 20.46-43.75L20.46-43.75Q20.7-43.99 20.63-44.38 20.56-44.78 20.8-45.02L20.8-45.02Q20.9-45.12 21.09-45.21 21.29-45.31 21.44-45.41L21.44-45.41Q22.07-45.85 22.51-46.29 22.95-46.73 23.73-46.92L23.73-46.92Q24.41-47.46 24.98-48 25.54-48.54 26.12-48.97 26.71-49.41 27.39-49.68 28.08-49.95 29.1-49.95L29.1-49.95Q29.3-49.95 29.49-49.93 29.69-49.9 29.88-49.9L29.88-49.9Q31.88-48.05 32.37-45.36L32.37-45.36Q31.84-44.68 31.52-43.9 31.2-43.12 30.81-42.33L30.81-42.33Q29.98-42.04 29.25-41.48 28.52-40.92 27.81-40.33 27.1-39.75 26.34-39.31 25.59-38.87 24.66-38.87L24.66-38.87Q24.27-38.53 23.41-37.77 22.56-37.01 21.66-36.18 20.75-35.35 20-34.62 19.24-33.89 19.04-33.59L19.04-33.59Q18.9-33.35 18.8-33.15 18.7-32.96 18.6-32.71L18.6-32.71 17.33-30.57Q16.26-28.71 15.14-26.93 14.01-25.15 13.18-23.19L13.18-23.19Q12.79-22.31 12.55-21.44 12.3-20.56 12.06-19.58L12.06-19.58Q11.96-19.29 11.82-18.99 11.67-18.7 11.57-18.46L11.57-18.46Q11.04-17.43 10.69-16.55 10.35-15.67 10.3-14.5L10.3-14.5Q9.08-11.77 8.03-9.01 6.98-6.25 6.45-3.32L6.45-3.32Q6.74-2.34 6.71-1.34 6.69-0.34 6.69 0.63L6.69 0.63Q6.69 1.86 6.86 2.66 7.03 3.47 7.35 4.13 7.67 4.79 8.06 5.49 8.45 6.2 8.89 7.18L8.89 7.18Q9.62 7.76 10.21 8.42 10.79 9.08 11.33 9.86L11.33 9.86Q13.18 10.79 15.09 10.79L15.09 10.79Q16.46 10.79 17.87 10.35 19.29 9.91 20.63 9.25 21.97 8.59 23.24 7.81 24.51 7.03 25.68 6.3L25.68 6.3Q27.73 5.08 29.25 3.66 30.76 2.25 32.01 0.68 33.25-0.88 34.33-2.66 35.4-4.44 36.57-6.45L36.57-6.45Q36.62-6.69 36.77-7.03L36.77-7.03 37.06-7.76Q37.21-8.15 37.33-8.47 37.45-8.79 37.45-8.89L37.45-8.89Q37.45-9.28 37.28-9.45 37.11-9.62 37.11-9.81L37.11-9.81Q37.11-10.21 37.3-10.35 37.5-10.5 37.77-10.64 38.04-10.79 38.26-10.99 38.48-11.18 38.48-11.72L38.48-11.72Q38.38-11.77 38.13-11.77L38.13-11.77Q37.89-11.77 37.65-11.72 37.4-11.67 37.16-11.67L37.16-11.67Q36.57-11.67 36.18-12.06L36.18-12.06Q35.94-11.96 35.69-11.74 35.45-11.52 35.23-11.28 35.01-11.04 34.81-10.84 34.62-10.64 34.47-10.64L34.47-10.64Q34.23-10.64 34.11-10.74 33.98-10.84 33.79-10.84L33.79-10.84Q32.96-10.84 32.32-10.45 31.69-10.06 30.96-9.81L30.96-9.81Q30.81-9.81 30.66-9.84 30.52-9.86 30.37-9.86L30.37-9.86Q29.83-9.86 29.32-9.69 28.81-9.52 28.34-9.33 27.88-9.13 27.39-8.98 26.9-8.84 26.42-8.89L26.42-8.89Q25.34-8.5 24.44-8.06 23.54-7.62 22.36-7.71L22.36-7.71Q22.02-7.57 21.66-7.4 21.29-7.23 20.95-6.98L20.95-6.98Q20.65-6.88 20.51-6.88L20.51-6.88Q20.26-6.88 20.12-7.13L20.12-7.13Q19.73-6.69 19.09-6.52 18.46-6.35 17.77-6.23 17.09-6.1 16.48-5.93 15.87-5.76 15.53-5.27L15.53-5.27Q14.99-5.71 14.26-5.71L14.26-5.71Q13.53-5.71 12.84-5.44 12.16-5.18 11.38-5.18L11.38-5.18Q11.08-5.18 10.99-5.27L10.99-5.27Q10.79-5.81 10.55-6.35 10.3-6.88 9.77-7.13L9.77-7.13Q9.67-7.67 9.59-8.18 9.52-8.69 9.52-9.18L9.52-9.18Q9.52-10.5 10.3-11.57L10.3-11.57Q10.99-11.82 11.69-11.99 12.4-12.16 13.09-12.4L13.09-12.4Q13.62-12.3 14.16-12.26 14.7-12.21 15.23-12.21L15.23-12.21Q17.24-12.21 19.14-12.72 21.04-13.23 22.9-13.82L22.9-13.82Q24.66-14.36 26.46-14.79 28.27-15.23 30.08-15.77L30.08-15.77Q31.79-16.21 33.45-16.77 35.11-17.33 36.91-17.48L36.91-17.48Q38.09-18.31 39.77-18.6 41.46-18.9 42.87-19.24L42.87-19.24Q45.12-19.78 47.31-20.34 49.51-20.9 51.81-21.34L51.81-21.34Q54.35-21.88 56.76-22.66 59.18-23.44 61.62-24.32L61.62-24.32 62.11-24.32Q62.94-24.32 63.82-24.51 64.7-24.71 65.58-24.71L65.58-24.71Q65.82-24.71 65.99-24.68 66.16-24.66 66.36-24.66L66.36-24.66Q66.5-24.66 67.09-24.88 67.68-25.1 67.92-25.2L67.92-25.2Q68.55-24.51 69.34-23.97 70.12-23.44 70.7-22.75Z" opacity="1" transform="matrix(1,0,0,1,0,0)" fill="#ffffff" class="undefined-text-0" data-fill-palette-color="quaternary" id="text-0"></path></svg></g></svg></g></svg></g></svg></g><g></g></svg></g><defs></defs></svg><rect width="316.4642862785556" height="247.2" fill="none" stroke="none" visibility="hidden"></rect></g></svg></g></svg>